<svg width="512" height="512" viewBox="0 0 512 512" xmlns="http://www.w3.org/2000/svg">
  <!-- 背景 -->
  <rect width="512" height="512" rx="115" fill="#B8D4CC"/>
  
  <!-- 打开的书本 -->
  <path d="M276 110 
           C276 110, 326 110, 406 130 
           L406 340 
           C406 360, 386 360, 386 360 
           C326 360, 276 340, 276 340 
           L276 110 Z" 
        fill="#FFFFFF"/>
  
  <path d="M236 110 
           C236 110, 186 110, 106 130 
           L106 340 
           C106 360, 126 360, 126 360 
           C186 360, 236 340, 236 340 
           L236 110 Z" 
        fill="#E8F5E8"/>
  
  <!-- 书中线 -->
  <rect x="254" y="110" width="4" height="250" fill="#2C3E38"/>
  
  <!-- 左页汉字"中" -->
  <text x="171" y="265" text-anchor="middle" font-family="Arial, sans-serif" font-size="80" font-weight="bold" fill="#2C3E38">中</text>
  
  <!-- 右页汉字"文" -->
  <text x="341" y="265" text-anchor="middle" font-family="Arial, sans-serif" font-size="80" font-weight="bold" fill="#2C3E38">文</text>
</svg>
